<?xml version="1.0" encoding="utf-8"?>
<!-- Generator: Adobe Illustrator 24.0.1, SVG Export Plug-In . SVG Version: 6.00 Build 0)  -->
<svg version="1.1" id="State_Tags" xmlns="http://www.w3.org/2000/svg" xmlns:xlink="http://www.w3.org/1999/xlink" x="0px" y="0px"
	 viewBox="0 0 28 28" style="enable-background:new 0 0 28 28;" xml:space="preserve">
<style type="text/css">
	.st0{fill:#32E67F;}
	.st1{fill:#FFFFFF;}
</style>
<path id="Path_48" class="st0" d="M0.4,10.5C4-3.5,23.9-3.5,27.5,10.5l0,0c2,7.5-2.6,15.2-10.1,17c-1.1,0.3-2.3,0.4-3.5,0.4l0,0
	C6.3,28,0,21.8,0,14.1C0,12.8,0.2,11.7,0.4,10.5z"/>
<path class="st1" d="M13.1,18c-0.3,0-0.7-0.1-0.9-0.4l-3.8-3.7c-0.5-0.5-0.5-1.3,0-1.7c0.5-0.5,1.3-0.5,1.8,0l2.9,2.8l4.8-4.7
	c0.5-0.5,1.3-0.5,1.8,0c0.5,0.5,0.5,1.3,0,1.7l-5.7,5.5C13.7,17.9,13.4,18,13.1,18z"/>
</svg>
